<svg width="133" height="131" viewBox="0 0 133 131" fill="none" xmlns="http://www.w3.org/2000/svg">
<rect width="133" height="131" rx="30" fill="#D4E8E9"/>
<path d="M111.556 82.038C112.371 82.038 112.997 82.414 113.436 83.166C113.937 83.918 114.188 84.952 114.188 86.268C114.188 88.712 113.593 90.6547 112.402 92.096C106.198 99.6787 99.5867 103.47 92.568 103.47C86.4893 103.47 81.6327 101.12 77.998 96.42C74.3633 91.72 72.546 84.9833 72.546 76.21C72.546 74.0793 72.64 71.9487 72.828 69.818C68.692 70.57 64.18 71.134 59.292 71.51C56.0333 71.7607 53.8087 71.9173 52.618 71.98C51.3647 78.372 49.61 86.2053 47.354 95.48C46.038 100.932 43.5313 103.658 39.834 103.658C35.8233 103.658 33.818 101.841 33.818 98.206C33.818 97.3913 33.9747 96.2633 34.288 94.822C36.4187 86.2367 38.1107 78.9673 39.364 73.014L34.852 73.202C32.784 73.202 31.28 72.8573 30.34 72.168C29.4 71.416 28.93 70.2254 28.93 68.596C28.93 66.528 29.5253 65.024 30.716 64.084C31.9067 63.0813 33.8807 62.5173 36.638 62.392L41.62 62.204C43.2493 53.368 44.064 46.6313 44.064 41.994C44.064 39.0487 43.6253 37.0433 42.748 35.978C41.8707 34.9127 40.7113 34.38 39.27 34.38C34.8833 34.38 29.9327 38.046 24.418 45.378C23.6033 46.4433 22.6947 46.976 21.692 46.976C20.8147 46.976 20.0627 46.5687 19.436 45.754C18.8093 44.9393 18.496 43.9053 18.496 42.652C18.496 40.7093 19.2793 38.6413 20.846 36.448C23.6033 32.6253 27.0813 29.492 31.28 27.048C35.4787 24.5413 39.74 23.288 44.064 23.288C48.1373 23.288 51.2707 24.698 53.464 27.518C55.72 30.2753 56.848 34.5993 56.848 40.49C56.848 45.6913 56.096 52.7413 54.592 61.64L63.804 61.17C67.752 60.982 71.136 60.6687 73.956 60.23C75.084 53.3367 76.8073 46.882 79.126 40.866C81.4447 34.85 84.3273 29.962 87.774 26.202C91.2207 22.442 95.0747 20.562 99.336 20.562C102.469 20.562 104.945 21.8153 106.762 24.322C108.579 26.766 109.488 29.9933 109.488 34.004C109.488 49.5453 101.561 60.324 85.706 66.34C85.518 68.8467 85.424 71.4473 85.424 74.142C85.424 80.722 86.2387 85.3907 87.868 88.148C89.4973 90.9054 91.7847 92.284 94.73 92.284C97.2993 92.284 99.6493 91.626 101.78 90.31C103.911 88.9313 106.323 86.6127 109.018 83.354C109.77 82.4767 110.616 82.038 111.556 82.038ZM98.866 28.74C97.4873 28.74 96.0147 29.9933 94.448 32.5C92.944 35.0067 91.5027 38.422 90.124 42.746C88.7453 47.07 87.6487 51.8014 86.834 56.94C91.8473 54.872 95.5447 51.9267 97.926 48.104C100.307 44.2813 101.498 39.362 101.498 33.346C101.498 31.9047 101.247 30.7767 100.746 29.962C100.245 29.1473 99.618 28.74 98.866 28.74Z" fill="#0E6C71"/>
</svg>
